<svg width="120" height="120" viewBox="0 0 120 120" fill="none" xmlns="http://www.w3.org/2000/svg">
<circle cx="60" cy="60" r="59.5" stroke="#97144D" stroke-opacity="0.59"/>
<g clip-path="url(#clip0_18_7061)">
<path d="M59.9597 81.2825C47.3044 81.2825 37.0074 70.9863 37.0074 58.3302C37.0074 56.9772 38.1044 55.881 39.4566 55.881C40.8096 55.881 41.9058 56.978 41.9058 58.3302C41.9066 68.285 50.0049 76.3841 59.9597 76.3841C69.9137 76.3841 78.0128 68.285 78.0128 58.331C78.0128 56.978 79.109 55.8818 80.462 55.8818C81.815 55.8818 82.9112 56.9788 82.9112 58.331C82.912 70.9863 72.615 81.2825 59.9597 81.2825Z" fill="#97144D"/>
<path d="M59.9598 73.1976C51.8314 73.1976 45.1809 66.5471 45.1809 58.4187V39.9744C45.1809 31.8461 51.8314 25.1956 59.9598 25.1956C68.0881 25.1956 74.7386 31.8461 74.7386 39.9744V58.418C74.7386 66.5463 68.0881 73.1976 59.9598 73.1976Z" fill="#97144D"/>
<path d="M59.9597 95.7017C58.6067 95.7017 57.5105 94.6056 57.5105 93.2526V79.4545C57.5105 78.1015 58.6075 77.0053 59.9597 77.0053C61.3127 77.0053 62.4089 78.1015 62.4089 79.4545V93.2526C62.4089 94.6056 61.3127 95.7017 59.9597 95.7017Z" fill="#97144D"/>
<path d="M68.2193 96.3237H51.7002C50.3471 96.3237 49.251 95.2275 49.251 93.8745C49.251 92.5215 50.3479 91.4254 51.7002 91.4254H68.2185C69.5715 91.4254 70.6677 92.5215 70.6677 93.8745C70.6677 95.2275 69.5723 96.3237 68.2193 96.3237Z" fill="#97144D"/>
</g>
<defs>
<clipPath id="clip0_18_7061">
<rect width="72" height="72" fill="white" transform="translate(24 24.8)"/>
</clipPath>
</defs>
</svg>
