<svg width="190" height="200" viewBox="0 0 190 200" fill="none" xmlns="http://www.w3.org/2000/svg">
<g clip-path="url(#clip0_18_7093)">
<path d="M71.25 108.333C88.7391 108.333 102.917 93.4095 102.917 75C102.917 56.5905 88.7391 41.6667 71.25 41.6667C53.761 41.6667 39.5834 56.5905 39.5834 75C39.5834 93.4095 53.761 108.333 71.25 108.333Z" fill="black" fill-opacity="0.27"/>
<path d="M71.25 125C50.1125 125 7.91663 136.167 7.91663 158.333V175H134.583V158.333C134.583 136.167 92.3875 125 71.25 125ZM132.683 44.6667L119.383 58.75C126.033 68.5833 126.033 81.3333 119.383 91.1666L132.683 105.25C148.675 88.4167 148.675 63 132.683 44.6667ZM158.887 16.6667L145.983 30.25C167.912 55.4167 167.912 93.25 145.983 119.75L158.887 133.333C189.762 100.917 189.842 50.4167 158.887 16.6667Z" fill="black" fill-opacity="0.27"/>
</g>
<defs>
<clipPath id="clip0_18_7093">
<rect width="190" height="200" fill="white"/>
</clipPath>
</defs>
</svg>
